<svg width="108" height="108" viewBox="0 0 108 108" fill="none" xmlns="http://www.w3.org/2000/svg">
<circle cx="54" cy="54" r="54" fill="#F0F2F6"/>
<path d="M53.9995 38C47.3829 38 42 43.3836 42 50.0009C42 54.7293 43.9796 59.5122 47.7248 63.8327C50.5221 67.0597 53.2943 68.888 53.411 68.9643C53.5897 69.0812 53.7947 69.1396 53.9996 69.1396C54.2045 69.1396 54.4094 69.0812 54.5883 68.9643C54.7049 68.888 57.4775 67.0597 60.2748 63.8329C64.0203 59.5122 66 54.7293 66 50.0009C65.9999 43.3836 60.6164 38 53.9995 38ZM53.9995 66.743C51.7926 65.0985 44.1514 58.7693 44.1514 50.0009C44.1514 44.5699 48.5692 40.1514 53.9995 40.1514C59.4303 40.1514 63.8484 44.5699 63.8484 50.0009C63.8484 58.7693 56.2066 65.0985 53.9995 66.743Z" fill="#6B6E7E"/>
<path d="M54.001 45.2358C51.3748 45.2358 49.2383 47.3725 49.2383 49.9989C49.2383 52.6247 51.3748 54.7609 54.001 54.7609C56.6271 54.7609 58.7635 52.6247 58.7635 49.9989C58.7635 47.3726 56.627 45.2358 54.001 45.2358ZM54.001 52.6095C52.5611 52.6095 51.3897 51.4384 51.3897 49.9989C51.3897 48.5588 52.5611 47.3873 54.001 47.3873C55.4407 47.3873 56.6121 48.5588 56.6121 49.9989C56.6121 51.4384 55.4407 52.6095 54.001 52.6095Z" fill="#6B6E7E"/>
</svg>
