<svg width="108" height="108" viewBox="0 0 108 108" fill="none" xmlns="http://www.w3.org/2000/svg">
<circle cx="54" cy="54" r="54" fill="#F0F2F6"/>
<path d="M66.0811 41.5295C63.1601 38.6084 59.2761 36.9998 55.1453 37C54.4684 37 53.9199 37.5487 53.9199 38.2254C53.9199 38.9022 54.4686 39.4508 55.1453 39.4508C58.6216 39.4507 61.8899 40.8044 64.3481 43.2625C66.8064 45.7207 68.1601 48.9892 68.1599 52.4656C68.1599 53.1424 68.7084 53.691 69.3854 53.691C70.0621 53.691 70.6108 53.1424 70.6108 52.4658C70.6109 48.3345 69.0024 44.4505 66.0811 41.5295Z" fill="#6B6E7E"/>
<path d="M61.0403 52.466C61.0403 53.1427 61.5889 53.6914 62.2658 53.6912C62.9426 53.6912 63.4911 53.1426 63.4911 52.4658C63.4908 47.8648 59.7469 44.121 55.1455 44.1204C55.1453 44.1204 55.1455 44.1204 55.1453 44.1204C54.4686 44.1204 53.9201 44.6689 53.9199 45.3456C53.9199 46.0224 54.4684 46.571 55.1452 46.5712C58.3955 46.5717 61.0399 49.216 61.0403 52.466Z" fill="#6B6E7E"/>
<path d="M58.3306 58.7138C56.4628 58.6171 55.5112 60.0062 55.0548 60.6735C54.6727 61.2321 54.8158 61.9947 55.3744 62.3768C55.9331 62.759 56.6956 62.6159 57.0778 62.0572C57.6169 61.2689 57.8612 61.1449 58.1926 61.1606C59.2531 61.2852 63.4302 64.3462 63.8484 65.3033C63.9533 65.5851 63.9494 65.8614 63.8368 66.1975C63.3983 67.4991 62.6724 68.4137 61.7371 68.8425C60.8486 69.2498 59.7593 69.2129 58.5876 68.7361C54.2126 66.9529 50.3902 64.4643 47.227 61.3393C47.2257 61.338 47.2244 61.3368 47.2233 61.3355C44.1048 58.1754 41.6208 54.358 39.8405 49.9896C39.3636 48.817 39.3267 47.7275 39.734 46.8392C40.1627 45.9039 41.0774 45.178 42.3778 44.7399C42.715 44.6269 42.9908 44.6233 43.2701 44.7272C44.2306 45.1469 47.2914 49.3238 47.4149 50.3725C47.4326 50.7162 47.3076 50.9603 46.5199 51.4985C45.9611 51.8802 45.8175 52.6427 46.1993 53.2015C46.581 53.7603 47.3434 53.9038 47.9023 53.5221C48.5699 53.0662 49.9587 52.1173 49.8623 50.243C49.7561 48.2853 45.9478 43.1008 44.1282 42.4317C43.3189 42.1301 42.4677 42.1249 41.5971 42.417C39.6384 43.0766 38.2238 44.2527 37.5062 45.818C36.8101 47.3365 36.8322 49.0983 37.5707 50.9139C39.476 55.5888 42.1417 59.6793 45.4936 63.072C45.5018 63.0804 45.5101 63.0885 45.5186 63.0965C48.9089 66.4423 52.9947 69.1031 57.6633 71.0061C58.5983 71.3863 59.519 71.5766 60.3995 71.5766C61.2285 71.5766 62.0222 71.408 62.7585 71.0704C64.3239 70.353 65.4998 68.9385 66.1599 66.9785C66.4514 66.1096 66.4467 65.2587 66.1473 64.4532C65.476 62.6286 60.2915 58.8203 58.3306 58.7138Z" fill="#6B6E7E"/>
</svg>
