<svg width="108" height="108" viewBox="0 0 108 108" fill="none" xmlns="http://www.w3.org/2000/svg">
<circle cx="54" cy="54" r="54" fill="#F0F2F6"/>
<path d="M66.0288 46.8192L54.2251 57.2206L42.4189 46.8191C41.9488 46.4049 41.2323 46.4504 40.8183 46.9202C40.4044 47.3902 40.4495 48.1067 40.9196 48.5209L53.4756 59.583C53.6899 59.7717 53.9576 59.8661 54.2253 59.8661C54.4929 59.8661 54.7609 59.7717 54.9751 59.5829L67.5286 48.5208C67.9984 48.1067 68.0436 47.39 67.6296 46.9201C67.2153 46.4506 66.4989 46.4052 66.0288 46.8192Z" fill="#6B6E7E"/>
<path d="M69.0479 42H39.4021C37.5263 42 36 43.5261 36 45.4021V63.396C36 65.272 37.5263 66.7982 39.4021 66.7982H69.0479C70.9237 66.7982 72.45 65.272 72.45 63.396V45.4021C72.45 43.5263 70.9237 42 69.0479 42ZM70.1819 63.396C70.1819 64.0213 69.6732 64.5301 69.0479 64.5301H39.4021C38.7768 64.5301 38.2681 64.0213 38.2681 63.396V45.4021C38.2681 44.7769 38.7768 44.2681 39.4021 44.2681H69.0479C69.6732 44.2681 70.1819 44.7769 70.1819 45.4021V63.396Z" fill="#6B6E7E"/>
</svg>
